# This file uses centimeters as units for non-parametric coordinates.

mtllib Human_Teeth_Bottom_1.mtl
g default
v 0.413205 -0.264972 0.221827
v 0.387485 -0.179297 -0.039664
v 0.280541 -0.174048 -0.256338
v 0.110567 -0.224843 -0.460312
v -0.114108 -0.320917 -0.561360
v -0.298781 -0.367254 -0.541611
v -0.475628 -0.306871 -0.345260
v -0.517222 -0.243103 -0.169054
v -0.529951 -0.161428 0.070258
v -0.502457 -0.145189 0.262524
v -0.396861 -0.237472 0.434764
v -0.233470 -0.347869 0.540063
v 0.008227 -0.413665 0.545159
v 0.276883 -0.377949 0.416302
v -0.005566 -0.636968 0.476504
v 0.226823 -0.618790 0.327755
v 0.351975 -0.511260 0.111729
v 0.312689 -0.433522 -0.126194
v 0.241496 -0.432721 -0.249218
v 0.068185 -0.461075 -0.435508
v -0.108367 -0.543063 -0.531377
v -0.276155 -0.561474 -0.500039
v -0.427508 -0.490321 -0.323821
v -0.489010 -0.419566 -0.103568
v -0.491688 -0.346290 0.117349
v -0.442512 -0.317387 0.266861
v -0.366305 -0.390875 0.418494
v -0.248570 -0.578838 0.468141
v -0.348785 -1.400851 -0.021765
v -0.308449 -1.449976 0.205193
v -0.088950 -1.479566 0.258112
v 0.088894 -1.456712 0.135802
v 0.151767 -1.437113 -0.010896
v 0.153146 -1.421165 -0.220588
v 0.028279 -1.383148 -0.370977
v -0.153966 -1.349347 -0.393425
v -0.298684 -1.359059 -0.243221
v -0.257693 -2.005031 -0.196168
v -0.231154 -2.037155 -0.029755
v -0.098395 -2.067254 0.006723
v 0.054759 -2.065402 -0.386888
v -0.058622 -2.004919 -0.481140
v -0.241779 -1.981851 -0.382017
v -0.171993 -1.666929 -0.430695
v -0.278090 -1.668491 -0.302509
v -0.302548 -1.702176 -0.106760
v -0.265985 -1.750831 0.082000
v -0.084500 -1.772147 0.142947
v 0.041136 -2.110784 -0.138919
v 0.085031 -1.703556 -0.008598
v 0.090083 -1.720864 -0.259609
v -0.009528 -1.690207 -0.409593
v -0.241281 -0.822516 -0.440299
v -0.163440 -1.043911 -0.424848
v -0.380770 -0.763551 -0.230393
v -0.323527 -1.072395 -0.222417
v -0.381006 -1.100783 0.042998
v -0.316027 -1.098857 0.303814
v -0.072930 -1.175612 0.340289
v 0.117934 -1.175857 0.208643
v 0.220589 -1.152774 0.020613
v 0.063657 -1.073610 -0.364996
v 0.222620 -1.120124 -0.203517
v -0.415540 -0.825263 0.084979
v -0.255888 -0.864899 0.416097
v -0.028889 -0.901567 0.412503
v 0.173506 -0.892671 0.266341
v 0.254421 -0.791819 -0.170802
v 0.286599 -0.847223 0.057414
v 0.110478 -0.731433 -0.362440
v -0.446656 -0.558178 0.141952
v -0.381854 -0.580510 0.325442
v -0.359301 -0.846303 0.299962
v -0.098919 -0.810186 -0.483239
v -0.174851 -1.982796 -0.471553
v -0.153567 -2.711538 -0.469938
v -0.114193 -2.659592 -0.496538
v -0.177967 -2.616844 -0.515056
v -0.195554 -2.638607 -0.486153
v -0.139368 -2.686222 -0.390360
v -0.071084 -2.646848 -0.421696
v -0.212337 -2.570602 -0.381819
v -0.225111 -2.294256 -0.405017
v -0.229457 -2.347183 -0.278650
v -0.001203 -2.355755 -0.444005
v -0.164715 -2.349213 -0.515393
v -0.171555 -2.558162 -0.287186
v -0.207458 -2.306118 -0.145265
v -0.015708 -2.459635 -0.321511
v -0.108243 -2.578828 -0.286414
v -0.093349 -2.304385 -0.116435
v -0.102759 1.625672 0.260068
v 0.150499 1.611257 0.219090
v 0.473158 1.605895 0.191200
v 0.602096 1.586529 0.126753
v 0.629687 1.486260 0.155285
v -0.307953 1.592490 0.265532
v -0.523029 1.578467 0.276193
v -0.604722 1.554728 0.263655
v -0.630313 1.442652 0.285848
v -0.594826 1.078861 0.384221
v -0.525263 0.565925 0.411394
v -0.379958 0.221390 0.542876
v -0.228941 -0.081780 0.604195
v 0.051860 -0.172536 0.608148
v 0.340964 -0.109687 0.509942
v 0.495934 0.229215 0.406387
v 0.633591 1.137094 0.197331
v 0.586474 0.676921 0.292264
v -0.543623 1.456336 0.369206
v -0.288518 1.505423 0.364477
v -0.081164 1.520569 0.345902
v 0.161158 1.502775 0.328627
v 0.454489 1.508428 0.295947
v 0.601453 1.462480 0.239098
v -0.578327 1.522215 0.153707
v -0.491822 1.536079 0.138567
v -0.307339 1.551934 0.135395
v -0.117048 1.588472 0.100656
v 0.133717 1.570223 0.073249
v 0.435144 1.571369 0.042268
v 0.544076 1.537621 0.026555
v -0.475343 1.091811 0.466419
v -0.348926 0.642681 0.553539
v -0.205066 0.255242 0.605210
v -0.113971 0.034686 0.627570
v 0.080404 0.010615 0.616170
v 0.310427 0.068383 0.558335
v 0.413738 0.332058 0.511398
v 0.493617 0.751658 0.441199
v 0.583705 1.126699 0.330204
v -0.044603 1.141003 0.472540
v -0.026597 0.665014 0.575322
v 0.068594 0.264378 0.607679
v 0.192489 0.690028 0.546503
v 0.197218 1.158212 0.446162
v 0.479696 1.131613 0.398956
v 0.483832 1.290495 -0.038542
v 0.397666 0.909412 -0.060628
v 0.291791 0.589664 -0.164479
v 0.222382 0.323167 -0.324525
v 0.028702 0.200441 -0.514691
v -0.130143 0.130173 -0.602294
v -0.431151 0.189821 -0.421634
v -0.464956 0.411677 -0.228815
v -0.489593 0.607493 -0.075968
v -0.556134 0.957874 0.077501
v -0.577833 1.275351 0.111781
v -0.279298 0.114419 -0.599790
v -0.311637 -0.117822 -0.597363
v -0.486241 -0.054072 -0.410149
v -0.539522 -0.006231 -0.184084
v -0.549894 0.033671 0.080747
v -0.499549 0.013041 0.331897
v -0.386783 -0.051399 0.500560
v 0.470132 -0.036173 0.293357
v 0.417491 0.037883 -0.029568
v 0.271851 0.042934 -0.294023
v 0.078032 -0.029502 -0.506722
v -0.123245 -0.088133 -0.622216
v -0.536292 0.275302 -0.168924
v -0.562863 0.312120 0.140508
v -0.494809 0.211988 0.403932
v 0.412299 0.314987 -0.071377
v 0.514719 0.279470 0.226615
v 0.546880 0.606201 0.133013
v 0.423620 0.590196 -0.070936
v 0.573780 0.948253 0.070886
v 0.593808 1.303188 0.027352
v -0.557011 0.493209 0.010633
v -0.597815 0.809601 0.220579
v -0.626581 1.023560 0.279228
v 0.121827 0.590542 -0.150286
v 0.038678 0.411873 -0.263208
v -0.090612 0.314035 -0.386998
v -0.196302 0.440145 -0.264161
v -0.261259 0.706821 -0.083034
v -0.393424 0.656826 -0.103849
v -0.338048 0.386415 -0.337610
v -0.194312 0.255557 -0.509735
v 0.208921 0.943074 -0.033652
v 0.251085 1.320953 -0.008219
v -0.084342 1.221453 0.016160
v -0.060864 0.820139 -0.066056
v -0.045828 0.527845 -0.193713
v -0.319868 1.108655 0.023743
v -0.484269 1.055706 0.035304
v -0.381966 1.365527 0.061495
vt 0.593187 0.076286
vt 0.584467 0.080617
vt 0.577225 0.069241
vt 0.585199 0.066111
vt 0.601561 0.070820
vt 0.592536 0.061531
vt 0.607869 0.063623
vt 0.598497 0.055524
vt 0.613153 0.056262
vt 0.605279 0.047614
vt 0.616011 0.050026
vt 0.618226 0.041353
vt 0.606398 0.036605
vt 0.620135 0.033178
vt 0.607728 0.028732
vt 0.601343 0.086067
vt 0.590742 0.091056
vt 0.617855 0.071431
vt 0.623066 0.062904
vt 0.627158 0.054784
vt 0.630350 0.045902
vt 0.632987 0.036833
vt 0.627591 0.077695
vt 0.633563 0.068763
vt 0.643566 0.074660
vt 0.636267 0.084491
vt 0.609069 0.113336
vt 0.598918 0.114670
vt 0.597110 0.102698
vt 0.615925 0.103451
vt 0.618878 0.111883
vt 0.629425 0.109884
vt 0.623103 0.098575
vt 0.630368 0.093931
vt 0.630662 0.103766
vt 0.621923 0.085684
vt 0.608495 0.095045
vt 0.612065 0.080894
vt 0.616642 0.089953
vt 0.639056 0.059969
vt 0.651732 0.066154
vt 0.657111 0.056504
vt 0.643250 0.050728
vt 0.658160 0.050362
vt 0.647069 0.040908
vt 0.588782 0.114847
vt 0.586111 0.103713
vt 0.658571 0.039282
vt 0.580703 0.095319
vt 0.634731 0.027441
vt 0.643996 0.023967
vt 0.644910 0.030181
vt 0.621826 0.025623
vt 0.576038 0.082982
vt 0.656214 0.030304
vt 0.655395 0.023106
vt 0.608617 0.021831
vt 0.570140 0.070361
vt 0.569735 0.057433
vt 0.577743 0.055649
vt 0.592833 0.029140
vt 0.594639 0.023210
vt 0.567203 0.020360
vt 0.567184 0.023275
vt 0.563883 0.024699
vt 0.565479 0.021131
vt 0.564889 0.057374
vt 0.595118 0.018577
vt 0.578931 0.017984
vt 0.560641 0.041603
vt 0.566293 0.044827
vt 0.561126 0.029798
vt 0.561725 0.028056
vt 0.571148 0.042893
vt 0.584602 0.052537
vt 0.580711 0.025360
vt 0.568567 0.026177
vt 0.577234 0.030460
vt 0.566051 0.027619
vt 0.590415 0.039381
vt 0.588542 0.047898
vt 0.577085 0.043722
vt 0.581016 0.040748
vt 0.571242 0.032077
vt 0.565899 0.033168
vt 0.570016 0.034053
vt 0.652166 0.080929
vt 0.643536 0.090609
vt 0.638020 0.099918
vt 0.077233 0.134765
vt 0.069397 0.132197
vt 0.083955 0.110358
vt 0.092054 0.110382
vt 0.077417 0.157166
vt 0.071391 0.154096
vt 0.130989 0.143550
vt 0.130134 0.150612
vt 0.123227 0.148842
vt 0.122994 0.141142
vt 0.088988 0.145025
vt 0.093096 0.129751
vt 0.095524 0.168439
vt 0.130602 0.156071
vt 0.131052 0.162037
vt 0.125804 0.164993
vt 0.123943 0.156162
vt 0.114887 0.170292
vt 0.105040 0.147118
vt 0.132940 0.135292
vt 0.127095 0.131917
vt 0.131712 0.127935
vt 0.136087 0.132338
vt 0.109017 0.134825
vt 0.110846 0.111448
vt 0.126550 0.118102
vt 0.117822 0.120446
vt 0.601937 0.121959
vt 0.590398 0.123209
vt 0.610064 0.121120
vt 0.620763 0.119688
vt 0.628373 0.116361
vt 0.633806 0.108565
vt 0.068437 0.162305
vt 0.064966 0.132188
vt 0.063213 0.164865
vt 0.057902 0.132583
vt 0.081109 0.103764
vt 0.076741 0.098230
vt 0.660554 0.073319
vt 0.666578 0.063094
vt 0.668656 0.052945
vt 0.668363 0.041380
vt 0.666064 0.031884
vt 0.663861 0.022252
vt 0.182084 0.197845
vt 0.201661 0.176144
vt 0.207784 0.178578
vt 0.184851 0.205193
vt 0.161481 0.207597
vt 0.161494 0.213585
vt 0.137559 0.204019
vt 0.129297 0.209467
vt 0.109915 0.192155
vt 0.110390 0.194179
vt 0.084871 0.178501
vt 0.084231 0.185141
vt 0.087949 0.174107
vt 0.200978 0.159937
vt 0.206889 0.148655
vt 0.172112 0.105995
vt 0.171027 0.099286
vt 0.195237 0.122382
vt 0.195040 0.131694
vt 0.143504 0.092588
vt 0.143211 0.088441
vt 0.108809 0.087139
vt 0.107696 0.093358
vt 0.106512 0.100707
vt 0.126176 0.107008
vt 0.125283 0.098181
vt 0.158216 0.105828
vt 0.141415 0.108721
vt 0.158980 0.113307
vt 0.135862 0.119632
vt 0.145750 0.117860
vt 0.135791 0.129252
vt 0.140984 0.134126
vt 0.143978 0.127454
vt 0.131835 0.164739
vt 0.130643 0.167939
vt 0.123089 0.174848
vt 0.130191 0.178973
vt 0.111296 0.183034
vt 0.131096 0.184848
vt 0.108735 0.187180
vt 0.150540 0.192301
vt 0.140161 0.198521
vt 0.166661 0.195355
vt 0.183410 0.184416
vt 0.159053 0.187120
vt 0.170042 0.186585
vt 0.194181 0.172363
vt 0.195468 0.159737
vt 0.180131 0.176502
vt 0.190065 0.162945
vt 0.191463 0.144511
vt 0.182962 0.128233
vt 0.186787 0.153965
vt 0.170540 0.126085
vt 0.159574 0.125680
vt 0.148904 0.131634
vt 0.140001 0.137602
vt 0.139652 0.146285
vt 0.152371 0.142164
vt 0.139510 0.152265
vt 0.163763 0.138672
vt 0.174910 0.138435
vt 0.181471 0.141713
vt 0.182167 0.162286
vt 0.178813 0.151899
vt 0.170334 0.156742
vt 0.170225 0.172485
vt 0.164464 0.181462
vt 0.145267 0.181666
vt 0.149378 0.177104
vt 0.141126 0.172646
vt 0.136297 0.165092
vt 0.137360 0.162595
vt 0.155555 0.170146
vt 0.156850 0.157767
vt 0.146553 0.165171
vt 0.138309 0.157226
vn -0.994028 -0.108782 -0.008643
vn -0.902250 -0.029734 -0.430187
vn -0.922551 -0.005391 -0.385839
vn -0.991104 -0.132493 -0.012612
vn -0.730529 -0.262017 0.630614
vn -0.755850 -0.322403 0.569866
vn 0.151038 -0.337020 0.929304
vn 0.261744 -0.397284 0.879577
vn 0.715114 -0.279048 0.640893
vn 0.889706 -0.261830 0.373990
vn 0.962173 -0.231177 0.144155
vn 0.928841 -0.166051 -0.331183
vn 0.967112 -0.093438 -0.236569
vn 0.504759 -0.030312 -0.862728
vn 0.518461 0.078606 -0.851481
vn -0.992657 -0.120875 0.004520
vn -0.910019 -0.125854 -0.395002
vn 0.166109 -0.296780 0.940388
vn 0.725239 -0.262320 0.636566
vn 0.960832 -0.216891 0.172509
vn 0.909459 -0.134299 -0.393508
vn 0.548312 -0.092538 -0.831138
vn 0.262042 -0.282789 0.922694
vn 0.740163 -0.267837 0.616783
vn 0.732899 -0.306459 0.607406
vn 0.259261 -0.286804 0.922240
vn -0.975938 -0.207738 -0.066258
vn -0.867188 -0.255194 -0.427622
vn -0.928125 -0.216160 -0.303081
vn -0.977456 -0.180057 0.110265
vn -0.968245 -0.185032 0.168123
vn -0.913057 -0.208925 0.350253
vn -0.875128 -0.150856 0.459775
vn -0.378361 -0.225668 0.897729
vn -0.763480 -0.211113 0.610352
vn -0.315705 -0.225964 0.921559
vn -0.985323 -0.168192 0.029145
vn -0.687410 -0.242872 0.684457
vn -0.902743 -0.141054 0.406398
vn 0.971129 -0.202059 0.126812
vn 0.969161 -0.237064 0.067287
vn 0.928609 -0.143303 -0.342271
vn 0.912838 -0.113076 -0.392353
vn 0.804947 -0.121538 -0.580766
vn 0.652645 -0.107917 -0.749939
vn -0.585295 -0.254207 -0.769941
vn -0.676993 -0.246838 -0.693362
vn 0.614905 -0.138125 -0.776410
vn -0.306829 -0.156025 -0.938889
vn 0.264365 -0.176471 -0.948140
vn -0.346711 0.016572 -0.937826
vn 0.253522 -0.171930 -0.951928
vn -0.376036 0.125545 -0.918061
vn -0.943494 -0.019518 -0.330813
vn -0.992999 -0.117332 0.013631
vn 0.937104 -0.071831 -0.341580
vn 0.459702 0.092034 -0.883292
vn -0.172656 -0.004005 -0.984974
vn 0.646513 -0.226582 -0.728479
vn -0.414416 -0.909771 -0.024009
vn -0.946244 -0.194763 -0.258245
vn -0.485647 0.110017 -0.867204
vn -0.106647 0.019785 -0.994100
vn -0.961122 -0.022632 -0.275195
vn -0.989297 -0.127255 0.071401
vn -0.769554 -0.313155 0.556525
vn 0.867663 -0.122101 -0.481925
vn 0.911062 -0.412268 -0.000851
vn 0.912812 -0.330114 0.240414
vn 0.020034 -0.858203 0.512919
vn 0.927420 -0.232818 0.292725
vn 0.287720 -0.403220 0.868695
vn -0.754034 -0.339361 0.562376
vn 0.348482 -0.483264 0.803129
vn 0.370906 -0.579344 0.725803
vn -0.971822 -0.210028 0.107003
vn -0.616228 -0.465205 0.635489
vn 0.670587 -0.361190 0.647962
vn 0.195796 -0.316750 0.928081
vn -0.293552 -0.244565 0.924130
vn 0.128410 0.079574 0.988524
vn 0.170580 -0.026432 0.984989
vn 0.421004 -0.043937 0.905994
vn 0.493006 0.025038 0.869666
vn -0.191378 0.059575 0.979707
vn -0.089293 0.002907 0.996001
vn 0.054344 0.970766 0.233793
vn -0.009728 0.965987 0.258406
vn 0.073384 0.458973 0.885414
vn 0.111125 0.429787 0.896066
vn -0.001717 0.160696 0.987002
vn 0.209297 0.139369 0.967869
vn -0.248585 0.101865 0.963239
vn -0.111866 0.952404 0.283571
vn -0.179041 0.915682 0.359822
vn -0.219198 0.296494 0.929539
vn -0.031643 0.371420 0.927926
vn -0.244618 0.160233 0.956289
vn 0.013937 0.238725 0.970987
vn 0.146822 0.946764 0.286498
vn 0.224793 0.428126 0.875315
vn 0.701578 0.251609 0.666694
vn 0.691576 0.716789 -0.089081
vn 0.147883 0.246735 0.957733
vn 0.510988 0.075416 0.856273
vn 0.778825 0.076785 0.622524
vn 0.272668 0.218442 0.936982
vn -0.882353 -0.195076 -0.428250
vn -0.522927 -0.226135 -0.821834
vn -0.984205 -0.146542 -0.099324
vn -0.988081 -0.135495 0.073061
vn -0.938752 -0.161636 0.304332
vn -0.760070 -0.211636 0.614413
vn -0.334912 -0.145365 0.930969
vn 0.184660 -0.251446 0.950092
vn 0.669175 -0.282135 0.687463
vn 0.955821 -0.271702 0.112177
vn 0.945140 -0.142735 -0.293831
vn 0.825594 -0.101537 -0.555055
vn 0.659102 -0.134101 -0.740001
vn 0.247048 -0.187912 -0.950608
vn -0.868508 -0.014921 -0.495451
vn -0.523847 -0.093910 -0.846620
vn -0.985868 -0.010704 -0.167182
vn -0.997203 -0.055137 0.050465
vn -0.945074 -0.108623 0.308278
vn -0.713238 -0.148469 0.685017
vn -0.548571 -0.025775 0.835707
vn 0.238396 -0.085515 -0.967396
vn 0.798992 0.002135 -0.601338
vn 0.628325 -0.010944 -0.777874
vn 0.931428 -0.084562 -0.353964
vn 0.974399 -0.212461 0.073536
vn 0.899813 -0.145780 0.411200
vn 0.972439 -0.096297 0.212341
vn 0.976254 -0.150285 -0.156024
vn 0.879273 -0.040685 -0.474578
vn 0.927002 -0.124766 -0.353695
vn 0.796918 -0.030925 -0.603295
vn 0.997887 -0.044520 0.047326
vn 0.851553 -0.102868 -0.514077
vn 0.987167 0.080966 -0.137645
vn 0.283915 0.427152 -0.858448
vn 0.825134 -0.049463 -0.562768
vn -0.865751 0.500391 0.009223
vn -0.970180 0.119034 0.211144
vn -0.759281 -0.012988 0.650633
vn -0.997063 -0.072911 -0.023444
vn -0.837000 -0.054935 0.544439
vn -0.997932 -0.060202 -0.022544
vn -0.902265 -0.091228 0.421421
vn -0.991340 0.013786 -0.130597
vn -0.994470 -0.060986 0.085501
vn -0.954929 0.120528 -0.271264
vn -0.755289 0.288716 -0.588372
vn -0.789748 0.222102 -0.571812
vn -0.710617 0.390707 -0.585125
vn -0.477449 0.249739 -0.842421
vn 0.233622 0.266862 -0.934989
vn -0.307116 0.624464 -0.718140
vn -0.122986 0.702544 -0.700932
vn 0.486764 0.359962 -0.795920
vn 0.597375 0.276969 -0.752616
vn 0.114671 0.750242 -0.651143
vn 0.319309 0.288917 -0.902535
vn 0.306722 0.073469 -0.948959
vn 0.179051 0.063463 -0.981791
vn -0.047622 0.673349 -0.737789
vn -0.082590 0.575315 -0.813751
vn -0.091038 0.173716 -0.980579
vn -0.106052 0.538131 -0.836162
vn -0.060097 0.186793 -0.980559
vn -0.025422 0.403563 -0.914599
vn 0.044204 0.651126 -0.757682
vn 0.040706 0.636321 -0.770350
vn -0.004498 0.480047 -0.877231
vn -0.046700 0.267031 -0.962556
vn -0.053969 0.378962 -0.923837
vn -0.238294 0.420912 -0.875242
vn -0.836636 0.082051 -0.541579
vn -0.259179 0.209576 -0.942817
vn -0.769357 0.068842 -0.635099
vn -0.634126 0.317264 -0.705144
vn -0.208345 0.604138 -0.769162
vn -0.114714 0.210248 -0.970895
vn -0.078308 0.194742 -0.977724
vn -0.157744 0.225524 -0.961382
vn -0.121591 0.599267 -0.791261
s 1
g Human_Teeth_Bottom_1
usemtl _lambert1
f 29/1/1 37/2/2 45/3/3 46/4/4
f 30/5/5 29/1/1 46/4/4 47/6/6
f 31/7/7 30/5/5 47/6/6 48/8/8
f 32/9/9 31/7/7 48/8/8 50/10/10
f 33/11/11 32/9/9 50/10/10
f 34/12/12 33/11/11 50/10/10 51/13/13
f 35/14/14 34/12/12 51/13/13 52/15/15
f 57/16/16 56/17/17 37/2/2 29/1/1
f 59/18/18 31/7/7 32/9/9 60/19/19
f 61/20/20 60/19/19 32/9/9 33/11/11
f 61/20/20 33/11/11 34/12/12 63/21/21
f 63/21/21 34/12/12 35/14/14 62/22/22
f 66/23/23 59/18/18 60/19/19 67/24/24
f 66/23/23 67/24/24 16/25/25 15/26/26
f 24/27/27 23/28/28 55/29/29
f 71/30/30 25/31/31 24/27/27
f 26/32/32 25/31/31 71/30/30 72/33/33
f 28/34/34 27/35/35 26/32/32 72/33/33
f 65/36/36 66/23/23 15/26/26 28/34/34
f 55/29/29 56/17/17 57/16/16 64/37/37
f 71/30/30 24/27/27 55/29/29 64/37/37
f 58/38/38 59/18/18 66/23/23 65/36/36
f 72/33/33 71/30/30 64/37/37 73/39/39
f 58/38/38 57/16/16 29/1/1 30/5/5
f 73/39/39 64/37/37 57/16/16 58/38/38
f 58/38/38 30/5/5 31/7/7 59/18/18
f 58/38/38 65/36/36 73/39/39
f 65/36/36 28/34/34 72/33/33 73/39/39
f 69/40/40 67/24/24 60/19/19 61/20/20
f 17/41/41 16/25/25 67/24/24 69/40/40
f 18/42/42 17/41/41 69/40/40 68/43/43
f 69/40/40 61/20/20 63/21/21 68/43/43
f 19/44/44 18/42/42 68/43/43 70/45/45
f 55/29/29 23/28/28 22/46/46 53/47/47
f 70/45/45 68/43/43 63/21/21 62/22/22
f 20/48/48 19/44/44 70/45/45
f 56/17/17 55/29/29 53/47/47 54/49/49
f 54/50/49 53/51/47 74/52/50
f 62/22/22 35/14/14 36/53/51 54/50/49
f 54/49/49 36/54/51 37/2/2 56/17/17
f 74/52/50 70/45/45 62/22/22 54/50/49
f 21/55/52 20/48/48 70/45/45 74/52/50
f 53/51/47 22/56/46 21/55/52 74/52/50
f 44/57/53 36/53/51 35/14/14 52/15/15
f 45/3/3 37/2/2 36/54/51 44/58/53
f 46/4/4 45/3/3 43/59/54 38/60/55
f 52/15/15 51/13/13 41/61/56 42/62/57
f 78/63/58 77/64/59 76/65/60 79/66/61
f 43/59/54 45/3/3 44/58/53 75/67/62
f 44/57/53 52/15/15 42/62/57 75/68/62
f 75/68/62 42/62/57 86/69/63
f 86/70/63 83/71/64 43/59/54 75/67/62
f 86/70/63 78/72/58 79/73/61 83/71/64
f 38/60/55 43/59/54 83/71/64 84/74/65
f 47/6/6 46/4/4 38/60/55 39/75/66
f 86/69/63 42/62/57 41/61/56 85/76/67
f 85/76/67 77/64/59 78/63/58 86/69/63
f 81/77/68 77/64/59 85/76/67 89/78/69
f 80/79/70 76/65/60 77/64/59 81/77/68
f 89/78/69 85/76/67 41/61/56 49/80/71
f 40/81/72 39/75/66 88/82/73 91/83/74
f 48/8/8 47/6/6 39/75/66 40/81/72
f 49/80/71 50/10/10 48/8/8 40/81/72
f 91/83/74 49/80/71 40/81/72
f 49/80/71 41/61/56 51/13/13 50/10/10
f 91/83/74 90/84/75 89/78/69 49/80/71
f 88/82/73 39/75/66 38/60/55 84/74/65
f 80/79/70 81/77/68 89/78/69 90/84/75
f 79/73/61 76/65/60 80/79/70 82/85/76
f 82/85/76 80/79/70 90/84/75 87/86/77
f 84/74/65 83/71/64 79/73/61 82/85/76
f 87/86/77 88/82/73 84/74/65 82/85/76
f 90/84/75 91/83/74 88/82/73 87/86/77
f 14/87/78 13/88/79 15/26/26 16/25/25
f 28/34/34 15/26/26 13/88/79 12/89/80
f 134/90/81 127/91/82 128/92/83 129/93/84
f 125/94/85 126/95/86 127/91/82 134/90/81
f 93/96/87 92/97/88 112/98/89 113/99/90
f 133/100/91 134/90/81 135/101/92
f 124/102/93 125/94/85 134/90/81 133/100/91
f 97/103/94 98/104/95 110/105/96 111/106/97
f 111/106/97 110/105/96 123/107/98 132/108/99
f 112/98/89 92/97/88 97/103/94 111/106/97
f 132/108/99 112/98/89 111/106/97
f 123/107/98 124/102/93 133/100/91 132/108/99
f 94/109/100 93/96/87 113/99/90 114/110/101
f 115/111/102 95/112/103 94/109/100 114/110/101
f 113/99/90 112/98/89 132/108/99 136/113/104
f 132/108/99 133/100/91 135/101/92 136/113/104
f 135/101/92 134/90/81 129/93/84 130/114/105
f 130/114/105 131/115/106 137/116/107
f 137/116/107 136/113/104 135/101/92 130/114/105
f 114/110/101 113/99/90 136/113/104 137/116/107
f 131/115/106 115/111/102 114/110/101 137/116/107
f 7/117/108 6/118/109 22/46/46 23/28/28
f 8/119/110 7/117/108 23/28/28 24/27/27
f 9/120/111 8/119/110 24/27/27 25/31/31
f 10/121/112 9/120/111 25/31/31 26/32/32
f 11/122/113 10/121/112 26/32/32 27/35/35
f 27/35/35 28/34/34 12/89/80 11/122/113
f 104/123/114 105/124/115 127/91/82 126/95/86
f 12/125/80 13/126/79 105/124/115 104/123/114
f 128/92/83 127/91/82 105/124/115 106/127/116
f 106/127/116 105/124/115 13/126/79 14/128/78
f 1/129/117 14/87/78 16/25/25 17/41/41
f 1/129/117 17/41/41 18/42/42 2/130/118
f 3/131/119 2/130/118 18/42/42 19/44/44
f 4/132/120 3/131/119 19/44/44 20/48/48
f 5/133/121 4/132/120 20/48/48 21/55/52
f 21/55/52 22/56/46 6/134/109 5/133/121
f 151/135/122 150/136/123 6/137/109 7/138/108
f 152/139/124 151/135/122 7/138/108 8/140/110
f 153/141/125 152/139/124 8/140/110 9/142/111
f 154/143/126 153/141/125 9/142/111 10/144/112
f 155/145/127 154/143/126 10/144/112 11/146/113
f 155/145/127 11/146/113 12/125/80 104/123/114
f 103/147/128 104/123/114 126/95/86 125/94/85
f 160/148/129 5/149/121 6/137/109 150/136/123
f 158/150/130 3/151/119 4/152/120 159/153/131
f 159/153/131 4/152/120 5/149/121 160/148/129
f 157/154/132 2/155/118 3/151/119 158/150/130
f 1/156/117 2/155/118 157/154/132 156/157/133
f 156/157/133 106/127/116 14/128/78 1/156/117
f 129/93/84 128/92/83 106/127/116 107/158/134
f 130/114/105 129/93/84 107/158/134 109/159/135
f 107/158/134 106/127/116 156/157/133 165/160/136
f 165/160/136 156/157/133 157/154/132 164/161/137
f 166/162/138 109/159/135 107/158/134 165/160/136
f 166/162/138 165/160/136 164/161/137 167/163/139
f 131/115/106 130/114/105 109/159/135 108/164/140
f 108/164/140 109/159/135 166/162/138 168/165/141
f 96/166/142 95/112/103 115/111/102
f 115/111/102 131/115/106 108/164/140 96/166/142
f 122/167/143 95/112/103 96/166/142 169/168/144
f 96/166/142 108/164/140 168/165/141 169/168/144
f 110/105/96 98/104/95 99/169/145 100/170/146
f 123/107/98 110/105/96 100/170/146 101/171/147
f 101/171/147 100/170/146 172/172/148
f 102/173/149 101/171/147 172/172/148 171/174/150
f 163/175/151 154/143/126 155/145/127
f 163/175/151 155/145/127 104/123/114 103/147/128
f 124/102/93 123/107/98 101/171/147 102/173/149
f 102/173/149 103/147/128 125/94/85 124/102/93
f 163/175/151 103/147/128 102/173/149
f 102/173/149 171/174/150 170/176/152 162/177/153
f 162/177/153 163/175/151 102/173/149
f 162/177/153 161/178/154 152/139/124 153/141/125
f 170/176/152 161/178/154 162/177/153
f 162/177/153 153/141/125 154/143/126 163/175/151
f 144/179/155 151/135/122 152/139/124 161/178/154
f 161/178/154 170/176/152 146/180/156 145/181/157
f 149/182/158 143/183/159 160/148/129 150/136/123
f 150/136/123 151/135/122 144/179/155 149/182/158
f 144/179/155 161/178/154 145/181/157 179/184/160
f 180/185/161 143/183/159 149/182/158
f 180/185/161 149/182/158 144/179/155 179/184/160
f 159/153/131 160/148/129 143/183/159 142/186/162
f 164/161/137 157/154/132 158/150/130 141/187/163
f 142/186/162 143/183/159 180/185/161 175/188/164
f 158/150/130 159/153/131 142/186/162 141/187/163
f 167/163/139 164/161/137 141/187/163 140/189/165
f 168/165/141 166/162/138 167/163/139 139/190/166
f 167/163/139 140/189/165 139/190/166
f 169/168/144 168/165/141 139/190/166 138/191/167
f 138/191/167 122/167/143 169/168/144
f 121/192/168 94/109/100 95/112/103 122/167/143
f 120/193/169 93/96/87 94/109/100 121/192/168
f 120/193/169 121/192/168 182/194/170
f 119/195/171 92/97/88 93/96/87 120/193/169
f 121/192/168 122/167/143 138/191/167 182/194/170
f 181/196/172 139/190/166 140/189/165 173/197/173
f 182/194/170 138/191/167 139/190/166 181/196/172
f 174/198/174 173/197/173 140/189/165 141/187/163
f 141/187/163 142/186/162 175/188/164 174/198/174
f 176/199/175 175/188/164 180/185/161 179/184/160
f 185/200/176 174/198/174 175/188/164 176/199/175
f 181/196/172 173/197/173 185/200/176 184/201/177
f 185/200/176 173/197/173 174/198/174
f 184/201/177 185/200/176 176/199/175 177/202/178
f 178/203/179 177/202/178 176/199/175 179/184/160
f 178/203/179 179/184/160 145/181/157 146/180/156
f 147/204/180 171/174/150 172/172/148
f 147/204/180 146/180/156 170/176/152 171/174/150
f 187/205/181 147/204/180 148/206/182
f 187/205/181 178/203/179 146/180/156 147/204/180
f 148/206/182 147/204/180 172/172/148 100/170/146
f 100/170/146 99/169/145 116/207/183 148/206/182
f 116/207/183 99/169/145 98/104/95 117/208/184
f 186/209/185 177/202/178 178/203/179 187/205/181
f 183/210/186 184/201/177 177/202/178 186/209/185
f 183/210/186 119/195/171 120/193/169 182/194/170
f 182/194/170 181/196/172 184/201/177 183/210/186
f 188/211/187 148/206/182 116/207/183 117/208/184
f 118/212/188 117/208/184 98/104/95 97/103/94
f 188/211/187 117/208/184 118/212/188
f 118/212/188 97/103/94 92/97/88 119/195/171
f 118/212/188 119/195/171 183/210/186 188/211/187
f 186/209/185 187/205/181 148/206/182 188/211/187
f 183/210/186 186/209/185 188/211/187
